<mxfile host="Electron" modified="2023-11-21T08:48:38.594Z" agent="Mozilla/5.0 (Windows NT 10.0; Win64; x64) AppleWebKit/537.36 (KHTML, like Gecko) draw.io/22.0.0 Chrome/114.0.5735.289 Electron/25.8.3 Safari/537.36" etag="2pt_iu2B7K3q3ooQ_rt3" version="22.0.0" type="device">
  <diagram id="R2lEEEUBdFMjLlhIrx00" name="Page-1">
    <mxGraphModel dx="3054" dy="969" grid="1" gridSize="10" guides="1" tooltips="1" connect="1" arrows="1" fold="1" page="1" pageScale="1" pageWidth="1100" pageHeight="850" math="0" shadow="0" extFonts="Permanent Marker^https://fonts.googleapis.com/css?family=Permanent+Marker">
      <root>
        <mxCell id="0" />
        <mxCell id="1" parent="0" />
        <mxCell id="YNK25mdzrpgsJ1T_sV3g-37" value="" style="group" vertex="1" connectable="0" parent="1">
          <mxGeometry x="-65" y="40" width="1555" height="700" as="geometry" />
        </mxCell>
        <mxCell id="yfBFrFUqt_gEeeeB9V8q-56" value="User" style="text;html=1;align=center;verticalAlign=middle;resizable=0;points=[];autosize=1;strokeColor=none;fillColor=none;fontSize=18;fontFamily=Helvetica;fontColor=default;container=0;" parent="YNK25mdzrpgsJ1T_sV3g-37" vertex="1">
          <mxGeometry x="100" y="2" width="60" height="40" as="geometry" />
        </mxCell>
        <mxCell id="yfBFrFUqt_gEeeeB9V8q-57" value="Confirm" style="text;html=1;align=center;verticalAlign=middle;resizable=0;points=[];autosize=1;strokeColor=none;fillColor=none;fontSize=18;fontFamily=Helvetica;fontColor=default;container=0;" parent="YNK25mdzrpgsJ1T_sV3g-37" vertex="1">
          <mxGeometry x="85" y="92" width="90" height="40" as="geometry" />
        </mxCell>
        <mxCell id="yfBFrFUqt_gEeeeB9V8q-58" value="Query" style="text;html=1;align=center;verticalAlign=middle;resizable=0;points=[];autosize=1;strokeColor=none;fillColor=none;fontSize=18;fontFamily=Helvetica;fontColor=default;container=0;" parent="YNK25mdzrpgsJ1T_sV3g-37" vertex="1">
          <mxGeometry x="105" y="195" width="70" height="40" as="geometry" />
        </mxCell>
        <mxCell id="yfBFrFUqt_gEeeeB9V8q-21" value="&lt;u&gt;UserID&lt;/u&gt;" style="rounded=0;whiteSpace=wrap;html=1;fontSize=16;container=0;" parent="YNK25mdzrpgsJ1T_sV3g-37" vertex="1">
          <mxGeometry x="205" width="120" height="50" as="geometry" />
        </mxCell>
        <mxCell id="yfBFrFUqt_gEeeeB9V8q-22" value="UserName" style="rounded=0;whiteSpace=wrap;html=1;fontSize=16;container=0;" parent="YNK25mdzrpgsJ1T_sV3g-37" vertex="1">
          <mxGeometry x="325" width="130" height="50" as="geometry" />
        </mxCell>
        <mxCell id="yfBFrFUqt_gEeeeB9V8q-27" value="&lt;u&gt;UserID&lt;/u&gt;" style="rounded=0;whiteSpace=wrap;html=1;fontSize=16;container=0;" parent="YNK25mdzrpgsJ1T_sV3g-37" vertex="1">
          <mxGeometry x="205" y="95" width="120" height="50" as="geometry" />
        </mxCell>
        <mxCell id="yfBFrFUqt_gEeeeB9V8q-28" value="&lt;u&gt;HotSpotID&lt;/u&gt;" style="rounded=0;whiteSpace=wrap;html=1;fontSize=16;container=0;" parent="YNK25mdzrpgsJ1T_sV3g-37" vertex="1">
          <mxGeometry x="325" y="95" width="130" height="50" as="geometry" />
        </mxCell>
        <mxCell id="yfBFrFUqt_gEeeeB9V8q-33" value="&lt;u&gt;UserID&lt;/u&gt;" style="rounded=0;whiteSpace=wrap;html=1;fontSize=16;container=0;" parent="YNK25mdzrpgsJ1T_sV3g-37" vertex="1">
          <mxGeometry x="205" y="195" width="120" height="50" as="geometry" />
        </mxCell>
        <mxCell id="yfBFrFUqt_gEeeeB9V8q-34" value="&lt;u&gt;QueryExecuteTime&lt;/u&gt;" style="rounded=0;whiteSpace=wrap;html=1;fontSize=16;container=0;" parent="YNK25mdzrpgsJ1T_sV3g-37" vertex="1">
          <mxGeometry x="325" y="195" width="160" height="50" as="geometry" />
        </mxCell>
        <mxCell id="yfBFrFUqt_gEeeeB9V8q-52" value="&lt;font style=&quot;font-size: 18px;&quot;&gt;Hotspot&lt;/font&gt;" style="text;html=1;align=center;verticalAlign=middle;resizable=0;points=[];autosize=1;strokeColor=none;fillColor=none;fontSize=18;fontFamily=Helvetica;fontColor=default;container=0;" parent="YNK25mdzrpgsJ1T_sV3g-37" vertex="1">
          <mxGeometry x="95" y="307" width="90" height="40" as="geometry" />
        </mxCell>
        <mxCell id="yfBFrFUqt_gEeeeB9V8q-53" value="GeoLocatingStaticInfo" style="text;html=1;align=center;verticalAlign=middle;resizable=0;points=[];autosize=1;strokeColor=none;fillColor=none;fontSize=18;fontFamily=Helvetica;fontColor=default;container=0;" parent="YNK25mdzrpgsJ1T_sV3g-37" vertex="1">
          <mxGeometry y="455" width="200" height="40" as="geometry" />
        </mxCell>
        <mxCell id="yfBFrFUqt_gEeeeB9V8q-54" value="eTagObs" style="text;html=1;align=center;verticalAlign=middle;resizable=0;points=[];autosize=1;strokeColor=none;fillColor=none;fontSize=18;fontFamily=Helvetica;fontColor=default;container=0;" parent="YNK25mdzrpgsJ1T_sV3g-37" vertex="1">
          <mxGeometry x="80" y="550" width="100" height="40" as="geometry" />
        </mxCell>
        <mxCell id="yfBFrFUqt_gEeeeB9V8q-55" value="WeatherObs" style="text;html=1;align=center;verticalAlign=middle;resizable=0;points=[];autosize=1;strokeColor=none;fillColor=none;fontSize=18;fontFamily=Helvetica;fontColor=default;container=0;" parent="YNK25mdzrpgsJ1T_sV3g-37" vertex="1">
          <mxGeometry x="70" y="647" width="120" height="40" as="geometry" />
        </mxCell>
        <mxCell id="-j702gHXIfNL3RZvTCW2-1" value="&lt;font style=&quot;font-size: 16px;&quot;&gt;&lt;u&gt;HotspotID&lt;/u&gt;&lt;/font&gt;" style="rounded=0;whiteSpace=wrap;html=1;fontSize=16;container=0;" parent="YNK25mdzrpgsJ1T_sV3g-37" vertex="1">
          <mxGeometry x="205" y="300" width="120" height="50" as="geometry" />
        </mxCell>
        <mxCell id="-j702gHXIfNL3RZvTCW2-2" value="UserID" style="rounded=0;whiteSpace=wrap;html=1;fontSize=16;container=0;" parent="YNK25mdzrpgsJ1T_sV3g-37" vertex="1">
          <mxGeometry x="325" y="300" width="110" height="50" as="geometry" />
        </mxCell>
        <mxCell id="-j702gHXIfNL3RZvTCW2-4" value="UserType" style="rounded=0;whiteSpace=wrap;html=1;fontSize=16;container=0;" parent="YNK25mdzrpgsJ1T_sV3g-37" vertex="1">
          <mxGeometry x="535" y="300" width="120" height="50" as="geometry" />
        </mxCell>
        <mxCell id="-j702gHXIfNL3RZvTCW2-5" value="Critical" style="rounded=0;whiteSpace=wrap;html=1;fontSize=16;container=0;" parent="YNK25mdzrpgsJ1T_sV3g-37" vertex="1">
          <mxGeometry x="435" y="300" width="110" height="50" as="geometry" />
        </mxCell>
        <mxCell id="yfBFrFUqt_gEeeeB9V8q-64" value="LocationX" style="rounded=0;whiteSpace=wrap;html=1;fontSize=16;container=0;" parent="YNK25mdzrpgsJ1T_sV3g-37" vertex="1">
          <mxGeometry x="655" y="300" width="110" height="50" as="geometry" />
        </mxCell>
        <mxCell id="yfBFrFUqt_gEeeeB9V8q-3" value="&lt;u&gt;RoadID&lt;/u&gt;" style="rounded=0;whiteSpace=wrap;html=1;fontSize=16;container=0;" parent="YNK25mdzrpgsJ1T_sV3g-37" vertex="1">
          <mxGeometry x="205" y="450" width="100" height="50" as="geometry" />
        </mxCell>
        <mxCell id="8K9fWrV_3aROfDubrVMO-2" value="NearestETagGantryID" style="rounded=0;whiteSpace=wrap;html=1;fontSize=16;container=0;" parent="YNK25mdzrpgsJ1T_sV3g-37" vertex="1">
          <mxGeometry x="885" y="450" width="190" height="50" as="geometry" />
        </mxCell>
        <mxCell id="yfBFrFUqt_gEeeeB9V8q-9" value="&lt;u&gt;ETagGantryID&lt;/u&gt;" style="rounded=0;whiteSpace=wrap;html=1;fontSize=16;container=0;" parent="YNK25mdzrpgsJ1T_sV3g-37" vertex="1">
          <mxGeometry x="205" y="550" width="120" height="50" as="geometry" />
        </mxCell>
        <mxCell id="yfBFrFUqt_gEeeeB9V8q-10" value="Date" style="rounded=0;whiteSpace=wrap;html=1;fontSize=16;container=0;" parent="YNK25mdzrpgsJ1T_sV3g-37" vertex="1">
          <mxGeometry x="325" y="550" width="100" height="50" as="geometry" />
        </mxCell>
        <mxCell id="yfBFrFUqt_gEeeeB9V8q-12" value="GantryTo" style="rounded=0;whiteSpace=wrap;html=1;fontSize=16;container=0;" parent="YNK25mdzrpgsJ1T_sV3g-37" vertex="1">
          <mxGeometry x="555" y="550" width="110" height="50" as="geometry" />
        </mxCell>
        <mxCell id="yfBFrFUqt_gEeeeB9V8q-13" value="GantryFrom" style="rounded=0;whiteSpace=wrap;html=1;fontSize=16;container=0;" parent="YNK25mdzrpgsJ1T_sV3g-37" vertex="1">
          <mxGeometry x="425" y="550" width="130" height="50" as="geometry" />
        </mxCell>
        <mxCell id="8K9fWrV_3aROfDubrVMO-11" value="VehicleType" style="rounded=0;whiteSpace=wrap;html=1;fontSize=16;container=0;" parent="YNK25mdzrpgsJ1T_sV3g-37" vertex="1">
          <mxGeometry x="665" y="550" width="110" height="50" as="geometry" />
        </mxCell>
        <mxCell id="yfBFrFUqt_gEeeeB9V8q-15" value="&lt;u&gt;StationId&lt;/u&gt;" style="rounded=0;whiteSpace=wrap;html=1;fontSize=16;container=0;" parent="YNK25mdzrpgsJ1T_sV3g-37" vertex="1">
          <mxGeometry x="205" y="650" width="120" height="50" as="geometry" />
        </mxCell>
        <mxCell id="yfBFrFUqt_gEeeeB9V8q-16" value="&lt;u&gt;ObsTime&lt;/u&gt;" style="rounded=0;whiteSpace=wrap;html=1;fontSize=16;container=0;" parent="YNK25mdzrpgsJ1T_sV3g-37" vertex="1">
          <mxGeometry x="325" y="650" width="110" height="50" as="geometry" />
        </mxCell>
        <mxCell id="yfBFrFUqt_gEeeeB9V8q-19" value="lat" style="rounded=0;whiteSpace=wrap;html=1;fontSize=16;container=0;" parent="YNK25mdzrpgsJ1T_sV3g-37" vertex="1">
          <mxGeometry x="435" y="650" width="100" height="50" as="geometry" />
        </mxCell>
        <mxCell id="8K9fWrV_3aROfDubrVMO-14" value="lon" style="rounded=0;whiteSpace=wrap;html=1;fontSize=16;container=0;" parent="YNK25mdzrpgsJ1T_sV3g-37" vertex="1">
          <mxGeometry x="535" y="650" width="100" height="50" as="geometry" />
        </mxCell>
        <mxCell id="8K9fWrV_3aROfDubrVMO-15" value="locationName" style="rounded=0;whiteSpace=wrap;html=1;fontSize=16;container=0;" parent="YNK25mdzrpgsJ1T_sV3g-37" vertex="1">
          <mxGeometry x="635" y="650" width="130" height="50" as="geometry" />
        </mxCell>
        <mxCell id="YNK25mdzrpgsJ1T_sV3g-1" value="UserPassword" style="rounded=0;whiteSpace=wrap;html=1;fontSize=16;container=0;" vertex="1" parent="YNK25mdzrpgsJ1T_sV3g-37">
          <mxGeometry x="455" width="130" height="50" as="geometry" />
        </mxCell>
        <mxCell id="YNK25mdzrpgsJ1T_sV3g-2" value="UserType" style="rounded=0;whiteSpace=wrap;html=1;fontSize=16;container=0;" vertex="1" parent="YNK25mdzrpgsJ1T_sV3g-37">
          <mxGeometry x="585" width="130" height="50" as="geometry" />
        </mxCell>
        <mxCell id="YNK25mdzrpgsJ1T_sV3g-3" value="ConfirmTime" style="rounded=0;whiteSpace=wrap;html=1;fontSize=16;container=0;" vertex="1" parent="YNK25mdzrpgsJ1T_sV3g-37">
          <mxGeometry x="455" y="95" width="130" height="50" as="geometry" />
        </mxCell>
        <mxCell id="YNK25mdzrpgsJ1T_sV3g-4" value="QueryStartTime" style="rounded=0;whiteSpace=wrap;html=1;fontSize=16;container=0;" vertex="1" parent="YNK25mdzrpgsJ1T_sV3g-37">
          <mxGeometry x="485" y="195" width="160" height="50" as="geometry" />
        </mxCell>
        <mxCell id="YNK25mdzrpgsJ1T_sV3g-5" value="QueryEndTime" style="rounded=0;whiteSpace=wrap;html=1;fontSize=16;container=0;" vertex="1" parent="YNK25mdzrpgsJ1T_sV3g-37">
          <mxGeometry x="645" y="195" width="160" height="50" as="geometry" />
        </mxCell>
        <mxCell id="YNK25mdzrpgsJ1T_sV3g-6" value="LocationY" style="rounded=0;whiteSpace=wrap;html=1;fontSize=16;container=0;" vertex="1" parent="YNK25mdzrpgsJ1T_sV3g-37">
          <mxGeometry x="765" y="300" width="110" height="50" as="geometry" />
        </mxCell>
        <mxCell id="YNK25mdzrpgsJ1T_sV3g-8" value="ConfirmCount" style="rounded=0;whiteSpace=wrap;html=1;fontSize=16;container=0;" vertex="1" parent="YNK25mdzrpgsJ1T_sV3g-37">
          <mxGeometry x="1445" y="300" width="110" height="50" as="geometry" />
        </mxCell>
        <mxCell id="YNK25mdzrpgsJ1T_sV3g-9" value="RoadDirection" style="rounded=0;whiteSpace=wrap;html=1;fontSize=16;container=0;" vertex="1" parent="YNK25mdzrpgsJ1T_sV3g-37">
          <mxGeometry x="1325" y="300" width="120" height="50" as="geometry" />
        </mxCell>
        <mxCell id="YNK25mdzrpgsJ1T_sV3g-10" value="NearestMileageID_k" style="rounded=0;whiteSpace=wrap;html=1;fontSize=16;container=0;" vertex="1" parent="YNK25mdzrpgsJ1T_sV3g-37">
          <mxGeometry x="985" y="300" width="170" height="50" as="geometry" />
        </mxCell>
        <mxCell id="YNK25mdzrpgsJ1T_sV3g-11" value="&lt;u&gt;RoadID&lt;/u&gt;" style="rounded=0;whiteSpace=wrap;html=1;fontSize=16;container=0;" vertex="1" parent="YNK25mdzrpgsJ1T_sV3g-37">
          <mxGeometry x="875" y="300" width="110" height="50" as="geometry" />
        </mxCell>
        <mxCell id="YNK25mdzrpgsJ1T_sV3g-12" value="NearestMileageID_m" style="rounded=0;whiteSpace=wrap;html=1;fontSize=16;container=0;" vertex="1" parent="YNK25mdzrpgsJ1T_sV3g-37">
          <mxGeometry x="1155" y="300" width="170" height="50" as="geometry" />
        </mxCell>
        <mxCell id="YNK25mdzrpgsJ1T_sV3g-13" value="24R" style="rounded=0;whiteSpace=wrap;html=1;fontSize=16;container=0;" vertex="1" parent="YNK25mdzrpgsJ1T_sV3g-37">
          <mxGeometry x="985" y="650" width="110" height="50" as="geometry" />
        </mxCell>
        <mxCell id="YNK25mdzrpgsJ1T_sV3g-14" value="&lt;u&gt;MileageID_k&lt;/u&gt;" style="rounded=0;whiteSpace=wrap;html=1;fontSize=16;container=0;" vertex="1" parent="YNK25mdzrpgsJ1T_sV3g-37">
          <mxGeometry x="305" y="450" width="120" height="50" as="geometry" />
        </mxCell>
        <mxCell id="YNK25mdzrpgsJ1T_sV3g-15" value="&lt;u&gt;MileageID_m&lt;/u&gt;" style="rounded=0;whiteSpace=wrap;html=1;fontSize=16;container=0;" vertex="1" parent="YNK25mdzrpgsJ1T_sV3g-37">
          <mxGeometry x="425" y="450" width="120" height="50" as="geometry" />
        </mxCell>
        <mxCell id="YNK25mdzrpgsJ1T_sV3g-16" value="RoadDirection" style="rounded=0;whiteSpace=wrap;html=1;fontSize=16;container=0;" vertex="1" parent="YNK25mdzrpgsJ1T_sV3g-37">
          <mxGeometry x="545" y="450" width="120" height="50" as="geometry" />
        </mxCell>
        <mxCell id="YNK25mdzrpgsJ1T_sV3g-17" value="LocationX" style="rounded=0;whiteSpace=wrap;html=1;fontSize=16;container=0;" vertex="1" parent="YNK25mdzrpgsJ1T_sV3g-37">
          <mxGeometry x="665" y="450" width="110" height="50" as="geometry" />
        </mxCell>
        <mxCell id="YNK25mdzrpgsJ1T_sV3g-18" value="LocationY" style="rounded=0;whiteSpace=wrap;html=1;fontSize=16;container=0;" vertex="1" parent="YNK25mdzrpgsJ1T_sV3g-37">
          <mxGeometry x="775" y="450" width="110" height="50" as="geometry" />
        </mxCell>
        <mxCell id="YNK25mdzrpgsJ1T_sV3g-19" value="WDSD" style="rounded=0;whiteSpace=wrap;html=1;fontSize=16;container=0;" vertex="1" parent="YNK25mdzrpgsJ1T_sV3g-37">
          <mxGeometry x="765" y="650" width="110" height="50" as="geometry" />
        </mxCell>
        <mxCell id="YNK25mdzrpgsJ1T_sV3g-20" value="TEMP" style="rounded=0;whiteSpace=wrap;html=1;fontSize=16;container=0;" vertex="1" parent="YNK25mdzrpgsJ1T_sV3g-37">
          <mxGeometry x="875" y="650" width="110" height="50" as="geometry" />
        </mxCell>
        <mxCell id="YNK25mdzrpgsJ1T_sV3g-21" value="NearestStationId" style="rounded=0;whiteSpace=wrap;html=1;fontSize=16;container=0;" vertex="1" parent="YNK25mdzrpgsJ1T_sV3g-37">
          <mxGeometry x="1075" y="450" width="150" height="50" as="geometry" />
        </mxCell>
        <mxCell id="YNK25mdzrpgsJ1T_sV3g-22" value="NearestObsTime" style="rounded=0;whiteSpace=wrap;html=1;fontSize=16;container=0;" vertex="1" parent="YNK25mdzrpgsJ1T_sV3g-37">
          <mxGeometry x="1225" y="450" width="150" height="50" as="geometry" />
        </mxCell>
        <mxCell id="YNK25mdzrpgsJ1T_sV3g-23" value="SpaceMeanSpeed" style="rounded=0;whiteSpace=wrap;html=1;fontSize=16;container=0;" vertex="1" parent="YNK25mdzrpgsJ1T_sV3g-37">
          <mxGeometry x="775" y="550" width="150" height="50" as="geometry" />
        </mxCell>
        <mxCell id="YNK25mdzrpgsJ1T_sV3g-24" value="traffic" style="rounded=0;whiteSpace=wrap;html=1;fontSize=16;container=0;" vertex="1" parent="YNK25mdzrpgsJ1T_sV3g-37">
          <mxGeometry x="925" y="550" width="110" height="50" as="geometry" />
        </mxCell>
        <mxCell id="YNK25mdzrpgsJ1T_sV3g-25" value="" style="endArrow=classic;html=1;rounded=0;exitX=0.5;exitY=1;exitDx=0;exitDy=0;entryX=0.133;entryY=1.032;entryDx=0;entryDy=0;entryPerimeter=0;" edge="1" parent="YNK25mdzrpgsJ1T_sV3g-37" source="yfBFrFUqt_gEeeeB9V8q-27" target="yfBFrFUqt_gEeeeB9V8q-21">
          <mxGeometry width="50" height="50" relative="1" as="geometry">
            <mxPoint x="865" y="400" as="sourcePoint" />
            <mxPoint x="1185" y="160" as="targetPoint" />
            <Array as="points">
              <mxPoint x="265" y="160" />
              <mxPoint x="725" y="160" />
              <mxPoint x="725" y="80" />
              <mxPoint x="221" y="80" />
            </Array>
          </mxGeometry>
        </mxCell>
        <mxCell id="YNK25mdzrpgsJ1T_sV3g-27" value="" style="endArrow=classic;html=1;rounded=0;exitX=0.5;exitY=1;exitDx=0;exitDy=0;entryX=0.5;entryY=1;entryDx=0;entryDy=0;" edge="1" parent="YNK25mdzrpgsJ1T_sV3g-37" source="yfBFrFUqt_gEeeeB9V8q-33" target="yfBFrFUqt_gEeeeB9V8q-21">
          <mxGeometry width="50" height="50" relative="1" as="geometry">
            <mxPoint x="865" y="400" as="sourcePoint" />
            <mxPoint x="915" y="350" as="targetPoint" />
            <Array as="points">
              <mxPoint x="265" y="280" />
              <mxPoint x="1025" y="280" />
              <mxPoint x="1025" y="70" />
              <mxPoint x="265" y="70" />
            </Array>
          </mxGeometry>
        </mxCell>
        <mxCell id="YNK25mdzrpgsJ1T_sV3g-28" value="" style="endArrow=classic;html=1;rounded=0;exitX=0.5;exitY=1;exitDx=0;exitDy=0;entryX=0.75;entryY=1;entryDx=0;entryDy=0;" edge="1" parent="YNK25mdzrpgsJ1T_sV3g-37" source="-j702gHXIfNL3RZvTCW2-2" target="yfBFrFUqt_gEeeeB9V8q-21">
          <mxGeometry width="50" height="50" relative="1" as="geometry">
            <mxPoint x="865" y="400" as="sourcePoint" />
            <mxPoint x="915" y="350" as="targetPoint" />
            <Array as="points">
              <mxPoint x="380" y="390" />
              <mxPoint x="185" y="390" />
              <mxPoint x="185" y="90" />
              <mxPoint x="295" y="90" />
            </Array>
          </mxGeometry>
        </mxCell>
        <mxCell id="YNK25mdzrpgsJ1T_sV3g-29" value="" style="endArrow=classic;html=1;rounded=0;exitX=0.5;exitY=1;exitDx=0;exitDy=0;entryX=0.442;entryY=1.102;entryDx=0;entryDy=0;entryPerimeter=0;" edge="1" parent="YNK25mdzrpgsJ1T_sV3g-37" source="yfBFrFUqt_gEeeeB9V8q-28" target="-j702gHXIfNL3RZvTCW2-1">
          <mxGeometry width="50" height="50" relative="1" as="geometry">
            <mxPoint x="865" y="400" as="sourcePoint" />
            <mxPoint x="915" y="350" as="targetPoint" />
            <Array as="points">
              <mxPoint x="390" y="170" />
              <mxPoint x="195" y="170" />
              <mxPoint x="195" y="380" />
              <mxPoint x="258" y="380" />
            </Array>
          </mxGeometry>
        </mxCell>
        <mxCell id="YNK25mdzrpgsJ1T_sV3g-30" value="" style="endArrow=classic;html=1;rounded=0;" edge="1" parent="YNK25mdzrpgsJ1T_sV3g-37">
          <mxGeometry width="50" height="50" relative="1" as="geometry">
            <mxPoint x="935" y="350" as="sourcePoint" />
            <mxPoint x="255" y="450" as="targetPoint" />
            <Array as="points">
              <mxPoint x="935" y="400" />
              <mxPoint x="255" y="400" />
            </Array>
          </mxGeometry>
        </mxCell>
        <mxCell id="YNK25mdzrpgsJ1T_sV3g-31" value="" style="endArrow=classic;html=1;rounded=0;exitX=0.5;exitY=1;exitDx=0;exitDy=0;entryX=0.5;entryY=0;entryDx=0;entryDy=0;" edge="1" parent="YNK25mdzrpgsJ1T_sV3g-37" source="YNK25mdzrpgsJ1T_sV3g-10" target="YNK25mdzrpgsJ1T_sV3g-14">
          <mxGeometry width="50" height="50" relative="1" as="geometry">
            <mxPoint x="865" y="400" as="sourcePoint" />
            <mxPoint x="915" y="350" as="targetPoint" />
            <Array as="points">
              <mxPoint x="1070" y="400" />
              <mxPoint x="715" y="400" />
              <mxPoint x="365" y="400" />
            </Array>
          </mxGeometry>
        </mxCell>
        <mxCell id="YNK25mdzrpgsJ1T_sV3g-32" value="" style="endArrow=classic;html=1;rounded=0;exitX=0.582;exitY=1.008;exitDx=0;exitDy=0;exitPerimeter=0;entryX=0.5;entryY=0;entryDx=0;entryDy=0;" edge="1" parent="YNK25mdzrpgsJ1T_sV3g-37" source="YNK25mdzrpgsJ1T_sV3g-12" target="YNK25mdzrpgsJ1T_sV3g-15">
          <mxGeometry width="50" height="50" relative="1" as="geometry">
            <mxPoint x="865" y="400" as="sourcePoint" />
            <mxPoint x="915" y="350" as="targetPoint" />
            <Array as="points">
              <mxPoint x="1254" y="400" />
              <mxPoint x="485" y="400" />
            </Array>
          </mxGeometry>
        </mxCell>
        <mxCell id="YNK25mdzrpgsJ1T_sV3g-33" value="" style="endArrow=classic;html=1;rounded=0;exitX=0.5;exitY=1;exitDx=0;exitDy=0;entryX=0.5;entryY=0;entryDx=0;entryDy=0;" edge="1" parent="YNK25mdzrpgsJ1T_sV3g-37" source="YNK25mdzrpgsJ1T_sV3g-9" target="YNK25mdzrpgsJ1T_sV3g-16">
          <mxGeometry width="50" height="50" relative="1" as="geometry">
            <mxPoint x="865" y="400" as="sourcePoint" />
            <mxPoint x="915" y="350" as="targetPoint" />
            <Array as="points">
              <mxPoint x="1385" y="400" />
              <mxPoint x="605" y="400" />
            </Array>
          </mxGeometry>
        </mxCell>
        <mxCell id="YNK25mdzrpgsJ1T_sV3g-34" value="" style="endArrow=classic;html=1;rounded=0;exitX=0.5;exitY=1;exitDx=0;exitDy=0;entryX=0.437;entryY=-0.015;entryDx=0;entryDy=0;entryPerimeter=0;" edge="1" parent="YNK25mdzrpgsJ1T_sV3g-37" source="8K9fWrV_3aROfDubrVMO-2" target="yfBFrFUqt_gEeeeB9V8q-9">
          <mxGeometry width="50" height="50" relative="1" as="geometry">
            <mxPoint x="865" y="400" as="sourcePoint" />
            <mxPoint x="915" y="350" as="targetPoint" />
            <Array as="points">
              <mxPoint x="980" y="520" />
              <mxPoint x="257" y="520" />
            </Array>
          </mxGeometry>
        </mxCell>
        <mxCell id="YNK25mdzrpgsJ1T_sV3g-35" value="" style="endArrow=classic;html=1;rounded=0;exitX=0.5;exitY=1;exitDx=0;exitDy=0;entryX=0.427;entryY=-0.027;entryDx=0;entryDy=0;entryPerimeter=0;" edge="1" parent="YNK25mdzrpgsJ1T_sV3g-37" source="YNK25mdzrpgsJ1T_sV3g-21" target="yfBFrFUqt_gEeeeB9V8q-15">
          <mxGeometry width="50" height="50" relative="1" as="geometry">
            <mxPoint x="1365" y="610" as="sourcePoint" />
            <mxPoint x="1415" y="560" as="targetPoint" />
            <Array as="points">
              <mxPoint x="1150" y="620" />
              <mxPoint x="256" y="620" />
            </Array>
          </mxGeometry>
        </mxCell>
        <mxCell id="YNK25mdzrpgsJ1T_sV3g-36" value="" style="endArrow=classic;html=1;rounded=0;exitX=0.5;exitY=1;exitDx=0;exitDy=0;entryX=0.5;entryY=0;entryDx=0;entryDy=0;" edge="1" parent="YNK25mdzrpgsJ1T_sV3g-37" source="YNK25mdzrpgsJ1T_sV3g-22" target="yfBFrFUqt_gEeeeB9V8q-16">
          <mxGeometry width="50" height="50" relative="1" as="geometry">
            <mxPoint x="865" y="400" as="sourcePoint" />
            <mxPoint x="915" y="350" as="targetPoint" />
            <Array as="points">
              <mxPoint x="1300" y="620" />
              <mxPoint x="380" y="620" />
            </Array>
          </mxGeometry>
        </mxCell>
      </root>
    </mxGraphModel>
  </diagram>
</mxfile>
